<svg xmlns="http://www.w3.org/2000/svg" width="160.5" height="90.469" viewBox="0 0 160.5 90.469">
  <g id="tokenika_eos_factory_by_tokenika_logo_02" data-name="tokenika_eos factory_by_tokenika_logo_02" transform="translate(-145.7 -142.5)">
    <g id="Group_80" data-name="Group 80" transform="translate(184.418 142.5)">
      <path id="Path_84" data-name="Path 84" d="M339.755,232.969l-33.733-29.709L278.5,171.976,314.652,142.5l46.94,7.58-18.63,38.4Zm-29.388-33.791,24.345,21.4,2.42-33.7,15.627-32.187L316.373,148.8l-29.33,23.878Z" transform="translate(-278.5 -142.5)" fill="#35ff3c"/>
    </g>
    <g id="Group_81" data-name="Group 81" transform="translate(145.7 181.393)">
      <path id="Path_85" data-name="Path 85" d="M393.952,276.7H390.22v1.749H392l-4.9,10.467h2.245l1.137-2.566h5.831l1.137,2.566h2.274Zm-2.77,7.959,2.216-5.16,2.216,5.16Z" transform="translate(-316.719 -276.467)" fill="#fff"/>
      <path id="Path_86" data-name="Path 86" d="M662.015,288.916h-2.391l2.566-4.315-4.49-7.9h2.478l3.149,5.889,3.149-5.889h2.449Z" transform="translate(-508.425 -276.467)" fill="#fff"/>
      <path id="Path_87" data-name="Path 87" d="M145.7,288.887h9.126v-1.778H147.8v-3.265h6.822v-1.749H147.8v-3.586h7.026V276.7H145.7Z" transform="translate(-145.7 -276.467)" fill="#fff"/>
      <path id="Path_88" data-name="Path 88" d="M193.1,282.327c0-3.7,2.507-6.327,6.472-6.327,3.819,0,6.472,2.478,6.472,6.327a6.069,6.069,0,0,1-6.472,6.327C195.782,288.624,193.1,286.175,193.1,282.327Zm10.758,0a4.272,4.272,0,1,0-4.286,4.373A4.1,4.1,0,0,0,203.858,282.327Z" transform="translate(-179.28 -275.971)" fill="#fff"/>
      <path id="Path_89" data-name="Path 89" d="M254.5,287.445l.787-1.808a9.367,9.367,0,0,0,4.257,1.05c1.516,0,2.391-.583,2.391-1.691,0-1.137-.991-1.458-2.828-1.837-2.653-.525-4.461-1.312-4.461-3.674,0-2.1,1.516-3.586,4.49-3.586a10.217,10.217,0,0,1,4.548.962l-.875,1.749a8.857,8.857,0,0,0-3.674-.816c-1.545,0-2.3.758-2.3,1.6,0,1.137,1.166,1.487,3.09,1.866,2.42.5,4.228,1.225,4.228,3.586,0,2.507-1.633,3.732-4.49,3.732A11.211,11.211,0,0,1,254.5,287.445Z" transform="translate(-222.779 -275.9)" fill="#fff"/>
      <path id="Path_90" data-name="Path 90" d="M345.2,276.7h8.776v1.778H347.27v4.2h5.744v1.778H347.27v4.461H345.2Z" transform="translate(-287.035 -276.467)" fill="#fff"/>
      <path id="Path_91" data-name="Path 91" d="M442.9,282.2c0-3.936,2.449-6.3,6.356-6.3a6.509,6.509,0,0,1,5.335,2.332l-1.633,1.37a4.308,4.308,0,0,0-3.644-1.749c-2.566,0-4.169,1.6-4.169,4.315s1.6,4.4,4.169,4.4a4.289,4.289,0,0,0,3.644-1.72l1.633,1.341a6.429,6.429,0,0,1-5.335,2.332C445.349,288.553,442.9,286.133,442.9,282.2Z" transform="translate(-356.251 -275.9)" fill="#fff"/>
      <path id="Path_92" data-name="Path 92" d="M502.965,278.508H499V276.7h10.117v1.808h-3.994v10.408h-2.158Z" transform="translate(-395.995 -276.467)" fill="#fff"/>
      <path id="Path_93" data-name="Path 93" d="M547.4,282.327c0-3.7,2.507-6.327,6.472-6.327,3.819,0,6.472,2.478,6.472,6.327a6.069,6.069,0,0,1-6.472,6.327C550.082,288.624,547.4,286.175,547.4,282.327Zm10.758,0a4.272,4.272,0,1,0-4.286,4.373A4.1,4.1,0,0,0,558.158,282.327Z" transform="translate(-430.283 -275.971)" fill="#fff"/>
      <path id="Path_94" data-name="Path 94" d="M614.492,284.834a3.8,3.8,0,0,0,2.536-3.878c0-2.741-1.662-4.257-4.781-4.257H605.6v1.749h1.72v10.467h2.128v-3.674h2.42a2.207,2.207,0,0,0,.437-.029l2.566,3.674h2.566Zm-2.711-1.341h-2.332v-5.015h2.566c1.866,0,2.77.875,2.77,2.536C614.813,282.531,613.822,283.493,611.781,283.493Z" transform="translate(-471.515 -276.467)" fill="#fff"/>
    </g>
    <g id="Group_83" data-name="Group 83" transform="translate(145.758 200.402)">
      <path id="Path_95" data-name="Path 95" d="M171.4,342.158h1.691v4.373h.9v-4.373h1.662V341.4H171.4Z" transform="translate(-163.965 -341.313)" fill="#fff"/>
      <path id="Path_96" data-name="Path 96" d="M194.511,345.59a1.838,1.838,0,0,1,0-3.674,1.837,1.837,0,0,1,0,3.674Zm0-4.49a2.654,2.654,0,1,0,2.711,2.653A2.541,2.541,0,0,0,194.511,341.1Z" transform="translate(-178.418 -341.1)" fill="#fff"/>
      <path id="Path_97" data-name="Path 97" d="M244.1,342.158h2.945V341.4H243.2v5.131h3.849V345.8H244.1v-1.4h2.886v-.729H244.1Z" transform="translate(-214.832 -341.313)" fill="#fff"/>
      <path id="Path_98" data-name="Path 98" d="M264.5,341.4v5.131h.875v-3.469l3.207,3.469h.466V341.4h-.9v3.469l-3.207-3.469Z" transform="translate(-229.922 -341.313)" fill="#fff"/>
      <rect id="Rectangle_8" data-name="Rectangle 8" width="0.904" height="5.131" transform="translate(41.779 0.087)" fill="#fff"/>
      <path id="Path_99" data-name="Path 99" d="M304.714,346.531l-2.187-2.8,2.07-2.332H303.49l-1.953,2.274h-.962V341.4H299v.729h.7v4.4h.875V344.4h1.4l1.633,2.128Z" transform="translate(-254.363 -341.313)" fill="#fff"/>
      <path id="Path_100" data-name="Path 100" d="M222.044,346.531l-2.216-2.8,2.07-2.332H220.79l-1.953,2.274h-.962V341.4H216.3v.729h.7v4.4h.875V344.4h1.4l1.662,2.128Z" transform="translate(-195.775 -341.313)" fill="#fff"/>
      <path id="Path_101" data-name="Path 101" d="M325.949,344.753l.933-2.157.933,2.157Zm1.166-3.353h-1.574v.729h.729l-2.07,4.4h.933l.466-1.079h2.449l.5,1.079h.962Z" transform="translate(-272.216 -341.313)" fill="#fff"/>
      <g id="Group_82" data-name="Group 82" transform="translate(0 1.429)">
        <path id="Path_102" data-name="Path 102" d="M148.028,348.449a3.23,3.23,0,0,1-.058.554,2.01,2.01,0,0,1-.2.437.911.911,0,0,1-.321.262.973.973,0,0,1-.437.087.893.893,0,0,1-.5-.117,1.167,1.167,0,0,1-.35-.292v.35H145.9V346h.292v1.487a1.119,1.119,0,0,1,.321-.321.893.893,0,0,1,.5-.117,1.065,1.065,0,0,1,.437.087.912.912,0,0,1,.321.262,1.523,1.523,0,0,1,.2.437,1.7,1.7,0,0,1,.058.554Zm-.292-.058a2.25,2.25,0,0,0-.058-.437.973.973,0,0,0-.146-.35.887.887,0,0,0-.233-.233.622.622,0,0,0-.35-.087.863.863,0,0,0-.292.058.873.873,0,0,0-.233.117.389.389,0,0,0-.146.175c-.029.058-.087.146-.117.2v1.2a.731.731,0,0,0,.117.2c.058.058.087.117.175.146a.731.731,0,0,0,.2.117.808.808,0,0,0,.262.029.692.692,0,0,0,.35-.087.888.888,0,0,0,.233-.233.973.973,0,0,0,.146-.35,1.984,1.984,0,0,0,.058-.437v-.029Z" transform="translate(-145.9 -346)" fill="#fff"/>
        <path id="Path_103" data-name="Path 103" d="M155.366,352.016l.758-2.216h.321l-1.108,3.061a1.42,1.42,0,0,0-.087.2.523.523,0,0,1-.146.2,1.266,1.266,0,0,1-.2.175.479.479,0,0,1-.292.058h-.233v-.233h.146a.432.432,0,0,0,.2-.029.637.637,0,0,0,.146-.087.291.291,0,0,0,.117-.146,1.421,1.421,0,0,0,.087-.2l.117-.35-.991-2.624h.321Z" transform="translate(-151.78 -348.692)" fill="#fff"/>
      </g>
    </g>
  </g>
</svg>
