<svg xmlns="http://www.w3.org/2000/svg" width="3039.829" height="2176.172" viewBox="0 0 3039.829 2176.172">
  <g id="Group_86" data-name="Group 86" transform="translate(499.718 521.917)">
    <g id="thumb" transform="translate(-499.54 85.213)" opacity="0.3">
      <g id="Layer_2" data-name="Layer 2" transform="translate(0.54 0.4)">
        <line id="Line_4" data-name="Line 4" x2="1106.41" y2="296.485" transform="translate(0 515.371)" fill="none" stroke="#35ff3c" stroke-miterlimit="10" stroke-width="1"/>
        <line id="Line_5" data-name="Line 5" x2="420.072" y2="1567.601" transform="translate(632.118)" fill="none" stroke="#35ff3c" stroke-miterlimit="10" stroke-width="1"/>
        <line id="Line_6" data-name="Line 6" y1="945.028" x2="945.066" transform="translate(492.3 130.195)" fill="none" stroke="#35ff3c" stroke-miterlimit="10" stroke-width="1"/>
        <path id="Path_29" data-name="Path 29" d="M1052.731,1568l54.219-755.744L1437.907,130.6,632.658.4.54,515.771l492.3,559.852Z" transform="translate(-0.54 -0.4)" fill="none" stroke="#35ff3c" stroke-miterlimit="10" stroke-width="1"/>
      </g>
    </g>
    <g id="thumb-2" data-name="thumb" transform="translate(331.46 -164.787)" opacity="0.6">
      <g id="Layer_2-2" data-name="Layer 2" transform="translate(0.54 0.4)">
        <line id="Line_4-2" data-name="Line 4" x2="1106.41" y2="296.485" transform="translate(0 515.371)" fill="none" stroke="#35ff3c" stroke-miterlimit="10" stroke-width="1"/>
        <line id="Line_5-2" data-name="Line 5" x2="420.072" y2="1567.601" transform="translate(632.118)" fill="none" stroke="#35ff3c" stroke-miterlimit="10" stroke-width="1"/>
        <line id="Line_6-2" data-name="Line 6" y1="945.028" x2="945.066" transform="translate(492.3 130.195)" fill="none" stroke="#35ff3c" stroke-miterlimit="10" stroke-width="1"/>
        <path id="Path_29-2" data-name="Path 29" d="M1052.731,1568l54.219-755.744L1437.907,130.6,632.658.4.54,515.771l492.3,559.852Z" transform="translate(-0.54 -0.4)" fill="none" stroke="#35ff3c" stroke-miterlimit="10" stroke-width="1"/>
      </g>
    </g>
    <g id="thumb-3" data-name="thumb" transform="translate(1101.46 -521.787)" opacity="0.3">
      <g id="Layer_2-3" data-name="Layer 2" transform="translate(0.54 0.4)">
        <line id="Line_4-3" data-name="Line 4" x2="1106.41" y2="296.485" transform="translate(0 515.371)" fill="none" stroke="#35ff3c" stroke-miterlimit="10" stroke-width="1"/>
        <line id="Line_5-3" data-name="Line 5" x2="420.072" y2="1567.601" transform="translate(632.118)" fill="none" stroke="#35ff3c" stroke-miterlimit="10" stroke-width="1"/>
        <line id="Line_6-3" data-name="Line 6" y1="945.028" x2="945.066" transform="translate(492.3 130.195)" fill="none" stroke="#35ff3c" stroke-miterlimit="10" stroke-width="1"/>
        <path id="Path_29-3" data-name="Path 29" d="M1052.731,1568l54.219-755.744L1437.907,130.6,632.658.4.54,515.771l492.3,559.852Z" transform="translate(-0.54 -0.4)" fill="none" stroke="#35ff3c" stroke-miterlimit="10" stroke-width="1"/>
      </g>
    </g>
  </g>
</svg>
