<?xml version="1.0" encoding="utf-8"?>
<!-- Generator: Adobe Illustrator 16.0.0, SVG Export Plug-In . SVG Version: 6.00 Build 0)  -->
<!DOCTYPE svg PUBLIC "-//W3C//DTD SVG 1.1//EN" "http://www.w3.org/Graphics/SVG/1.1/DTD/svg11.dtd">
<svg version="1.1" id="Layer_1" xmlns="http://www.w3.org/2000/svg" xmlns:xlink="http://www.w3.org/1999/xlink" x="0px" y="0px"
	 width="410.4px" height="435px" viewBox="82.5 48.2 410.4 435" enable-background="new 82.5 48.2 410.4 435" xml:space="preserve">
<rect x="105" y="49.8" transform="matrix(-0.8572 -0.515 0.515 -0.8572 348.925 696.0991)" fill="none" width="332" height="499.7"/>
<path id="Path_72" fill="none" stroke="#35FF3C" stroke-width="2.5" d="M226.8,183.4l-8.6-49.5l-8.6-49.5l66.8-15.3l66.8-15.3
	l74.9,67.2l74.9,67.2L442,303.2l-50.8,115.1l-151.3,29.5L88.7,477.3l69.1-146.9L226.8,183.4z"/>
<g id="Group_65" transform="translate(2.458 96.937)">
	<path id="Path_73" fill="none" stroke="#35FF3C" stroke-width="2.5" d="M207.1-12.6l90.8,166.9l90.8,166.9"/>
</g>
<g id="Group_67" transform="translate(68.301 -29.94)">
	<path id="Path_75" fill="none" stroke="#35FF3C" stroke-width="2.5" d="M424.6,218l-133-2.3l-133-2.3"/>
</g>
<rect x="105" y="49.8" transform="matrix(-0.8572 -0.515 0.515 -0.8572 348.925 696.0991)" fill="none" width="332" height="499.7"/>
<g id="Group_68" transform="translate(101.217 1.928)">
	<path id="Path_76" fill="none" stroke="#35FF3C" stroke-width="2.5" d="M241.9,51.9L-12.6,475.4"/>
</g>
</svg>
