<?xml version="1.0" encoding="utf-8"?>
<!-- Generator: Adobe Illustrator 16.0.0, SVG Export Plug-In . SVG Version: 6.00 Build 0)  -->
<!DOCTYPE svg PUBLIC "-//W3C//DTD SVG 1.1//EN" "http://www.w3.org/Graphics/SVG/1.1/DTD/svg11.dtd">
<svg version="1.1" xmlns="http://www.w3.org/2000/svg" xmlns:xlink="http://www.w3.org/1999/xlink" x="0px" y="0px" width="629px"
	 height="656.3px" viewBox="205.3 126.6 629 656.3" enable-background="new 205.3 126.6 629 656.3" xml:space="preserve">
<g id="Layer_1">
	
		<rect x="206.1" y="45.1" transform="matrix(0.5739 -0.8189 0.8189 0.5739 -155.3372 561.3145)" opacity="0.3" fill="none" width="511.4" height="769.6"/>
	<path id="Path_72" opacity="0.3" fill="none" stroke="#000000" d="M645.1,374.7l77-7.9l77.1-7.9l16.3,104.3l16.3,104.3L720.5,675.1
		L609.2,782.9l-171.3-90.5l-171.3-90.5l-29-235.6l-29-235.6l218.3,122L645.1,374.7z"/>
	<g id="Group_65" transform="translate(3.785 149.279)" opacity="0.3">
		<path id="Path_73" fill="none" stroke="#000000" d="M795.4,209.5L529.1,331L262.8,452.6"/>
	</g>
	<g id="Group_67" transform="translate(105.181 -8.375)" opacity="0.3">
		<path id="Path_75" fill="none" stroke="#000000" d="M504,791.3l18-204.1l18-204.1"/>
	</g>
	
		<rect x="206.1" y="45.1" transform="matrix(0.5739 -0.8189 0.8189 0.5739 -155.3372 561.3145)" opacity="0.3" fill="none" width="511.4" height="769.6"/>
	<g id="Group_69" transform="translate(0 -69.879)" opacity="0.3">
		<g id="Group_68" transform="translate(155.87 2.969)">
			<path id="Path_76" fill="none" stroke="#000000" d="M675.8,634.3L52.7,197.5"/>
		</g>
	</g>
</g>
<g id="Layer_2">
</g>
</svg>
