<?xml version="1.0" encoding="utf-8"?>
<!-- Generator: Adobe Illustrator 16.0.0, SVG Export Plug-In . SVG Version: 6.00 Build 0)  -->
<!DOCTYPE svg PUBLIC "-//W3C//DTD SVG 1.1//EN" "http://www.w3.org/Graphics/SVG/1.1/DTD/svg11.dtd">
<svg version="1.1" id="Layer_1" xmlns="http://www.w3.org/2000/svg" xmlns:xlink="http://www.w3.org/1999/xlink" x="0px" y="0px"
	 width="368px" height="457.3px" viewBox="18.3 -79 368 457.3" enable-background="new 18.3 -79 368 457.3" xml:space="preserve">
<g id="Group_73" transform="translate(0 -70.094)">
	<g id="Group_72" transform="translate(2.451 1.643)">
		<path id="Path_78" fill="none" stroke="#35FF3C" stroke-width="2.5" d="M342,285.1l-13.8-85.6L261.5,97.9L194.8-3.7L167,120.6
			l-27.8,124.2l-54.4,61.8l-54.3,61.9l80.6,31.6l80.6,31.6l82-30.6l82-30.6L342,285.1z"/>
	</g>
</g>
<g id="Group_74" transform="translate(158.099 -68.451)">
	<path id="Path_80" fill="none" stroke="#35FF3C" stroke-width="2.5" d="M-16.4,244.8l108.4,63l108.4,63"/>
</g>
<g id="Group_77" transform="translate(0 -70.094)">
	<g id="Group_75" transform="translate(2.453 164.279)">
		<path id="Path_81" fill="none" stroke="#35FF3C" stroke-width="2.5" d="M328.1,36.8l-148.8,84.6L30.4,206"/>
	</g>
	<g id="Group_76" transform="translate(111.409 29.554)">
		<path id="Path_82" fill="none" stroke="#35FF3C" stroke-width="2.5" d="M85.9-31.7l-1.5,217.9L82.9,404"/>
	</g>
</g>
</svg>
